<svg width="30" height="30" viewBox="0 0 30 30" fill="none" xmlns="http://www.w3.org/2000/svg">
<path d="M15 30C23.2843 30 30 23.2843 30 15C30 6.71573 23.2843 0 15 0C6.71573 0 0 6.71573 0 15C0 23.2843 6.71573 30 15 30Z" fill="#F7931A"/>
<path d="M21.739 13.1438C22.0334 11.1788 20.5362 10.1222 18.4905 9.41719L19.1543 6.75469L17.5343 6.35156L16.8874 8.94375C16.4618 8.83687 16.0249 8.7375 15.589 8.63812L16.2405 6.02906L14.6205 5.625L13.9568 8.28656C13.6043 8.20594 13.2574 8.12719 12.9218 8.04281L12.9237 8.03437L10.6887 7.47656L10.2574 9.20719C10.2574 9.20719 11.4602 9.48281 11.4349 9.49969C12.0912 9.66375 12.2093 10.0978 12.1896 10.4428C11.5835 12.8754 10.9784 15.3027 10.3718 17.7356C10.2912 17.9344 10.0877 18.2334 9.62836 18.12C9.64523 18.1434 8.45086 17.8266 8.45086 17.8266L7.64648 19.6809L9.75586 20.2069C10.1477 20.3053 10.5321 20.4084 10.9099 20.505L10.2396 23.1975L11.8587 23.6006L12.5224 20.9381C12.9649 21.0572 13.3943 21.1678 13.8143 21.2728L13.1524 23.9241L14.7724 24.3272L15.4427 21.6403C18.2065 22.1634 20.284 21.9525 21.1587 19.4531C21.8637 17.4412 21.124 16.2797 19.6699 15.5231C20.7293 15.2794 21.5262 14.5828 21.739 13.1438ZM18.0359 18.3356C17.5362 20.3484 14.1471 19.26 13.0484 18.9872L13.939 15.42C15.0377 15.6947 18.5599 16.2375 18.0359 18.3356ZM18.5374 13.1147C18.0809 14.9456 15.2609 14.0147 14.3468 13.7869L15.153 10.5525C16.0671 10.7803 19.0137 11.205 18.5374 13.1147Z" fill="white"/>
</svg>
