<svg width="178" height="32" viewBox="0 0 178 32" fill="none" xmlns="http://www.w3.org/2000/svg">
<path d="M29.845 19.9721C29.5074 19.9721 26.0179 15.1609 24.7842 14.5048C23.5505 13.8511 21.6607 13.7204 20.0752 12.5342C19.5523 12.1896 18.7726 11.6856 17.9287 11.146C16.5714 10.2332 15.1927 9.37988 13.8093 8.55267C13.7546 8.51939 13.7095 8.49324 13.669 8.46947C13.6667 8.46709 13.6619 8.46472 13.6572 8.46234C13.6381 8.45045 13.6096 8.43381 13.593 8.42431C11.1446 6.96717 8.67246 5.58372 6.24548 4.08855C5.18531 3.43723 4.13941 2.74313 3.09112 2.05378C2.1712 1.45001 1.26316 0.782053 0.409799 0C0.293323 2.28436 1.16808 4.73273 2.45883 6.65815C3.6426 8.42431 5.30417 9.98366 7.81672 11.417C10.3459 12.8575 15.1238 13.6039 17.8313 16.3257C14.9099 15.4675 11.9671 14.7711 9.05279 13.9367C8.09722 13.6657 7.14401 13.3638 6.19081 13.0667C5.35409 12.8052 4.51736 12.5057 3.70678 12.123C3.98728 13.5754 5.16154 14.9398 6.4404 16.0475C7.55287 17.015 9.93468 17.7733 11.4608 18.2107C13.7071 18.8549 18.0523 19.1734 20.1133 20.6353C17.9905 20.4713 15.8655 20.3952 13.7522 20.2312C12.9892 20.1717 12.2262 20.0909 11.4631 20.0125C10.7952 19.9435 10.1225 19.8413 9.46403 19.6749C9.79444 20.7589 10.7999 21.6479 11.8863 22.285C13.1508 23.029 14.5771 23.2429 16.039 23.3118C17.8408 23.395 21.3184 22.2065 23.8167 23.9418C21.8913 24.5836 19.9611 25.3728 18.1118 26.0169C17.5603 26.2095 17.0064 26.3854 16.4502 26.5637C15.9629 26.7205 15.4709 26.856 14.9764 26.9392C15.371 27.6096 16.2173 27.9328 17.0873 28.0541C18.0975 28.1943 19.1315 27.8687 20.2392 27.6642C22.4832 27.2506 26.334 24.8593 28.2618 25.3775C28.2571 25.3941 28.2547 25.4084 28.2499 25.425C26.586 26.6564 25.3832 28.2229 23.9546 29.5611C23.6527 29.844 23.3342 30.1174 23.018 30.3955C22.7423 30.6379 22.4428 30.8685 22.1029 31.0729C22.961 31.3297 23.9189 31.2465 24.7319 31.042C25.678 30.8043 26.4743 30.3884 27.021 29.8297C27.5796 29.2616 27.8767 28.596 28.1834 27.94C28.4781 30.115 29.6904 31.7932 29.845 32V19.9721Z" fill="white"/>
<path d="M32.5738 26.8844C32.5691 26.8702 32.5667 26.8559 32.5619 26.8416C32.8924 26.7537 33.2846 26.7656 33.7196 26.8393V25.0684H31.1951V27.5928H33.4343C33.161 27.348 32.8757 27.1079 32.5738 26.8844Z" fill="white"/>
<path d="M33.7196 21.3672H31.1951V23.8892H33.7196V21.3672Z" fill="white"/>
<path d="M33.7196 17.6519H33.199C32.2315 18.8096 31.3473 19.9315 31.1951 19.9315V20.1764H33.7196V17.6519Z" fill="white"/>
<path d="M37.6061 26.5992V24.0771H35.0817V25.8646C35.7758 25.9978 36.5626 26.2806 37.3613 26.5992H37.6061Z" fill="white"/>
<path d="M36.5103 28.8574V31.099H38.7019C37.9626 30.374 37.2733 29.5919 36.5103 28.8574Z" fill="white"/>
<path d="M35.0817 20.1764H37.6061V17.6519H35.0817V20.1764Z" fill="white"/>
<path d="M38.9252 26.5996H41.4473V25.5252C40.6129 25.2114 39.7691 24.8976 38.9252 24.6147V26.5996Z" fill="white"/>
<path d="M38.9252 21.3672V23.8892H40.1779C40.5939 23.7704 41.0194 23.711 41.4473 23.6824V21.3672H38.9252Z" fill="white"/>
<path d="M38.9252 16.354H41.4473V13.8296H38.9252V16.354Z" fill="white"/>
<path d="M38.9252 20.1764H41.4473V17.6519H38.9252V20.1764Z" fill="white"/>
<path d="M43.3799 21.6287C43.5106 21.536 43.6556 21.4504 43.8078 21.3672H42.8118V23.6753C43.6889 23.6325 44.5613 23.7371 45.3362 23.8274V21.5003C44.6825 21.5383 44.0312 21.5787 43.3799 21.6287Z" fill="white"/>
<path d="M45.3362 12.4469V9.92482H44.9987C44.3735 10.3242 43.8054 10.6902 43.4108 10.9517C43.2159 11.0991 43.0162 11.2227 42.8118 11.3368V12.4469H45.3362Z" fill="white"/>
<path d="M42.8118 16.354H45.3362V13.8296H42.8118V16.354Z" fill="white"/>
<path d="M42.8785 28.1208C43.0686 28.128 43.2564 28.1232 43.4442 28.0971C44.1954 27.9925 44.9275 27.712 45.2674 27.1344C44.8419 27.0631 44.4164 26.9442 43.9957 26.8087C43.7794 26.7398 43.5607 26.6708 43.3468 26.5995H42.8785V28.1208Z" fill="white"/>
<path d="M46.653 12.4469H49.1775V9.92482H46.653V12.4469Z" fill="white"/>
<path d="M49.1775 16.8223H46.653V18.7644C47.4541 18.5267 48.3288 18.3436 49.1775 18.182V16.8223Z" fill="white"/>
<path d="M50.5063 16.6138H53.0308V14.0894H51.5499C51.2028 14.1844 50.8558 14.2795 50.5063 14.3722V16.6138Z" fill="white"/>
<path d="M54.2479 7.11719V9.64163H55.2178C55.7859 9.30884 56.3017 8.96654 56.7724 8.61474V7.11719H54.2479Z" fill="white"/>
<path d="M56.3801 14.0895C56.8175 13.5048 57.1479 12.882 57.2715 12.2378C56.7153 12.4993 56.1472 12.7156 55.5767 12.9081V14.0895H56.3801Z" fill="white"/>
<path d="M60.2119 1.93493C60.3426 1.28837 60.3997 0.637052 60.3664 0C59.7602 0.558609 59.1184 1.04591 58.4671 1.49279V1.93493H60.2119Z" fill="white"/>
<path d="M68.8217 0.246584H71.3936V14.9392H68.8217V0.246584Z" fill="white"/>
<path d="M73.2858 4.29977H75.5107V5.86387L75.5511 5.90428C76.25 4.73239 77.4646 4.00977 78.8624 4.00977C81.1681 4.00977 82.63 5.24584 82.63 7.63478V14.9395H80.2838V8.25044C80.2434 6.58412 79.5826 5.86387 78.2063 5.86387C76.6422 5.86387 75.6319 7.09995 75.6319 8.66167V14.9395H73.2858V4.29977Z" fill="white"/>
<path d="M88.9459 13.3751C91.0449 13.3751 91.9292 11.4616 91.9292 9.60745C91.9292 7.26367 90.7977 5.86358 88.9864 5.86358C86.7852 5.86358 86.0031 7.81752 86.0031 9.73343C86.0031 11.5638 86.9088 13.3751 88.9459 13.3751ZM94.1945 14.9392H91.9719V13.4963H91.9292C91.3111 14.7134 89.9752 15.2268 88.6369 15.2268C85.2829 15.2268 83.657 12.7357 83.657 9.54565C83.657 5.69956 85.9413 4.00947 88.2685 4.00947C89.6068 4.00947 91.0853 4.50628 91.8055 5.67817H91.8483V0.246584H94.1945V14.9392Z" fill="white"/>
<path d="M103.127 8.68307C103.044 7.19978 102.036 5.86387 100.451 5.86387C98.8249 5.86387 97.7125 7.09995 97.6507 8.68307H103.127ZM97.6507 10.2258C97.6507 11.8945 98.5563 13.3754 100.51 13.3754C101.87 13.3754 102.692 12.7787 103.106 11.6069H105.326C104.813 13.9316 102.837 15.2271 100.51 15.2271C97.1776 15.2271 95.3045 12.9024 95.3045 9.62914C95.3045 6.60552 97.2822 4.00977 100.451 4.00977C103.805 4.00977 105.863 7.03576 105.471 10.2258H97.6507Z" fill="white"/>
<path d="M111.644 5.86387C109.669 5.86387 108.659 7.36618 108.659 9.62914C108.659 11.7709 109.75 13.3754 111.644 13.3754C113.784 13.3754 114.587 11.4809 114.587 9.62914C114.587 7.69659 113.579 5.86387 111.644 5.86387ZM106.398 4.29977H108.621V5.74027H108.659C109.32 4.52797 110.596 4.00977 111.953 4.00977C115.307 4.00977 116.933 6.56273 116.933 9.67193C116.933 12.5315 115.495 15.2271 112.346 15.2271C110.988 15.2271 109.524 14.7327 108.785 13.5608H108.742V18.8688H106.398V4.29977Z" fill="white"/>
<path d="M125.289 8.68307C125.208 7.19978 124.198 5.86387 122.615 5.86387C120.989 5.86387 119.876 7.09995 119.814 8.68307H125.289ZM119.814 10.2258C119.814 11.8945 120.72 13.3754 122.674 13.3754C124.034 13.3754 124.856 12.7787 125.27 11.6069H127.49C126.977 13.9316 125.001 15.2271 122.674 15.2271C119.341 15.2271 117.468 12.9024 117.468 9.62914C117.468 6.60552 119.446 4.00977 122.615 4.00977C125.969 4.00977 128.027 7.03576 127.635 10.2258H119.814Z" fill="white"/>
<path d="M128.5 4.29977H130.723V5.86387L130.763 5.90428C131.462 4.73239 132.677 4.00977 134.077 4.00977C136.38 4.00977 137.842 5.24584 137.842 7.63478V14.9395H135.496V8.25044C135.455 6.58412 134.797 5.86387 133.418 5.86387C131.854 5.86387 130.844 7.09995 130.844 8.66167V14.9395H128.5V4.29977Z" fill="white"/>
<path d="M144.16 13.3751C146.259 13.3751 147.143 11.4616 147.143 9.60745C147.143 7.26367 146.012 5.86358 144.201 5.86358C141.999 5.86358 141.217 7.81752 141.217 9.73343C141.217 11.5638 142.123 13.3751 144.16 13.3751ZM149.406 14.9392H147.186V13.4963H147.143C146.528 14.7134 145.19 15.2268 143.851 15.2268C140.497 15.2268 138.871 12.7357 138.871 9.54565C138.871 5.69956 141.158 4.00947 143.483 4.00947C144.819 4.00947 146.3 4.50628 147.02 5.67817H147.063V0.246584H149.406V14.9392Z" fill="white"/>
<path d="M158.339 8.68307C158.256 7.19978 157.248 5.86387 155.663 5.86387C154.037 5.86387 152.924 7.09995 152.863 8.68307H158.339ZM152.863 10.2258C152.863 11.8945 153.768 13.3754 155.722 13.3754C157.082 13.3754 157.904 12.7787 158.318 11.6069H160.538C160.025 13.9316 158.049 15.2271 155.722 15.2271C152.39 15.2271 150.516 12.9024 150.516 9.62914C150.516 6.60552 152.494 4.00977 155.663 4.00977C159.017 4.00977 161.073 7.03576 160.683 10.2258H152.863Z" fill="white"/>
<path d="M161.549 4.29977H163.774V5.86387L163.814 5.90428C164.513 4.73239 165.727 4.00977 167.125 4.00977C169.431 4.00977 170.893 5.24584 170.893 7.63478V14.9395H168.547V8.25044C168.506 6.58412 167.845 5.86387 166.469 5.86387C164.905 5.86387 163.895 7.09995 163.895 8.66167V14.9395H161.549V4.29977Z" fill="white"/>
<path d="M171.363 4.29998H173.134V1.10996H175.48V4.29998H177.601V6.04949H175.48V11.7283C175.48 12.6981 175.561 13.1902 176.612 13.1902C176.94 13.1902 177.27 13.1902 177.601 13.107V14.9183C177.087 14.9611 176.593 15.0419 176.077 15.0419C173.629 15.0419 173.175 14.0958 173.134 12.3249V6.04949H171.363V4.29998Z" fill="white"/>
<path d="M74.6858 24.0492C76.8275 24.0492 78.432 23.0413 78.432 20.6737C78.432 18.4536 76.6611 17.6073 74.6858 17.6073H69.4586V24.0492H74.6858ZM68.553 16.8276H74.6858C77.2578 16.8276 79.3377 17.7713 79.3377 20.6119C79.3377 22.5873 78.1444 24.0492 76.1881 24.3772V24.42C78.3702 24.6672 78.9051 26.0459 79.0477 27.5672C79.1927 29.0909 78.9455 30.7382 79.5421 31.5203H78.5343C77.978 30.5124 78.3084 28.8223 78.1444 27.4032C77.9566 25.9841 77.2578 24.8312 74.6858 24.8312H69.4586V31.5203H68.553V16.8276Z" fill="white"/>
<path d="M88.5155 25.6534C88.4751 23.4308 87.075 21.3747 84.648 21.3747C82.3019 21.3747 80.9232 23.5544 80.7568 25.6534H88.5155ZM80.7568 26.3332C80.7164 28.822 82.0333 31.0873 84.648 31.0873C86.6424 31.0873 88.0639 29.8941 88.4323 27.9401H89.2144C88.8031 30.4075 87.1582 31.7648 84.648 31.7648C81.5602 31.7648 79.9343 29.3378 79.9747 26.414C79.9343 23.514 81.458 20.6948 84.648 20.6948C87.9593 20.6948 89.4402 23.3072 89.2976 26.3332H80.7568Z" fill="white"/>
<path d="M90.5717 27.9995C90.6953 29.9559 92.1572 31.0873 94.0707 31.0873C95.4494 31.0873 97.4247 30.6737 97.4247 28.8434C97.4247 27.0535 95.6134 26.7849 93.8021 26.414C91.9718 26.0456 90.1604 25.5726 90.1604 23.4118C90.1604 21.3129 92.1976 20.6948 93.9875 20.6948C96.2314 20.6948 97.8978 21.6599 97.8978 24.0679H97.1157C97.0943 22.1567 95.7584 21.3747 93.9875 21.3747C92.5494 21.3747 90.9425 21.9071 90.9425 23.4118C90.9425 25.0972 92.7538 25.3658 94.4605 25.7366C96.5595 26.1264 98.2068 26.6208 98.2068 28.8434C98.2068 31.1278 95.9224 31.7648 94.0707 31.7648C91.6627 31.7648 89.8514 30.4693 89.7896 27.9995H90.5717Z" fill="white"/>
<path d="M107.242 25.6534C107.199 23.4308 105.799 21.3747 103.372 21.3747C101.026 21.3747 99.6473 23.5544 99.4809 25.6534H107.242ZM99.4809 26.3332C99.4429 28.822 100.76 31.0873 103.372 31.0873C105.369 31.0873 106.788 29.8941 107.159 27.9401H107.941C107.53 30.4075 105.882 31.7648 103.372 31.7648C100.284 31.7648 98.6608 29.3378 98.6989 26.414C98.6608 23.514 100.182 20.6948 103.372 20.6948C106.686 20.6948 108.167 23.3072 108.022 26.3332H99.4809Z" fill="white"/>
<path d="M109.709 23.2861H109.771C110.182 21.9075 111.911 20.7974 113.824 20.8782V21.6602C113.002 21.5604 111.849 21.7648 110.903 22.6919C110.121 23.493 109.79 24.1514 109.709 25.7369V31.5203H108.927V20.9424H109.709V23.2861Z" fill="white"/>
<path d="M118.122 31.5198H117.154L112.895 20.9419H113.8L117.627 30.6118H117.67L121.25 20.9419H122.113L118.122 31.5198Z" fill="white"/>
<path d="M130.364 25.6534C130.323 23.4308 128.923 21.3747 126.496 21.3747C124.15 21.3747 122.771 23.5544 122.605 25.6534H130.364ZM122.605 26.3332C122.567 28.822 123.884 31.0873 126.496 31.0873C128.491 31.0873 129.912 29.8941 130.283 27.9401H131.065C130.654 30.4075 129.006 31.7648 126.496 31.7648C123.408 31.7648 121.785 29.3378 121.823 26.414C121.785 23.514 123.306 20.6948 126.496 20.6948C129.808 20.6948 131.291 23.3072 131.146 26.3332H122.605Z" fill="white"/>
</svg>
